<?xml version="1.0" encoding="utf-8"?>

<!DOCTYPE svg PUBLIC "-//W3C//DTD SVG 1.1//EN" "http://www.w3.org/Graphics/SVG/1.1/DTD/svg11.dtd">
<!-- Uploaded to: SVG Repo, www.svgrepo.com, Generator: SVG Repo Mixer Tools -->
<svg version="1.1" id="_x32_" xmlns="http://www.w3.org/2000/svg" xmlns:xlink="http://www.w3.org/1999/xlink" 
	 viewBox="0 0 512 512"  xml:space="preserve">
<style type="text/css">
	.st0{fill:#000000;}
</style>
<g>
	<path class="st0" d="M147.971,367.566c0,30.471,0,53.324,0,53.324h106.748h106.75c0,0,0-22.854,0-53.324
		c0-60.945-85.133-86.781-85.133-107.35v-11.543c0-20.568,85.133-46.404,85.133-107.348c0-30.472,0-53.326,0-53.326h-106.75H147.971
		c0,0,0,22.854,0,53.326c0,60.944,85.131,86.78,85.131,107.348v11.543C233.101,280.785,147.971,306.621,147.971,367.566z
		 M182.564,141.326v-18.732h72.154h72.156v18.732c0,5.282-1.192,13.656-11.504,25.342c-9.068,10.275-21.889,19.496-33.199,27.633
		c-9.668,6.957-19.471,14.041-27.016,22.381c-0.141,0.15-0.305,0.285-0.445,0.436c-7.594-8.535-17.604-15.734-27.446-22.816
		c-11.31-8.137-24.129-17.358-33.195-27.633C183.758,154.982,182.564,146.608,182.564,141.326z M326.875,367.566v18.73h-72.156
		h-72.154v-18.73c0-5.283,1.194-13.658,11.506-25.344c9.066-10.276,21.885-19.496,33.195-27.633
		c9.846-7.082,19.856-14.285,27.453-22.822c7.598,8.537,17.61,15.74,27.453,22.822c11.31,8.136,24.129,17.357,33.199,27.633
		C325.683,353.908,326.875,362.283,326.875,367.566z"/>
	<rect x="121.773" class="st0" width="268.453" height="48"/>
	<rect x="121.773" y="456" class="st0" width="268.453" height="56"/>
</g>
</svg>